<mxfile host="app.diagrams.net" agent="Mozilla/5.0 (Macintosh; Intel Mac OS X 10_15_7) AppleWebKit/605.1.15 (KHTML, like Gecko) Version/18.1 Safari/605.1.15" version="28.1.0">
  <diagram name="Page-1" id="RItc7W-0UCuhXcyOI40J">
    <mxGraphModel dx="1050" dy="893" grid="1" gridSize="10" guides="1" tooltips="1" connect="1" arrows="1" fold="1" page="1" pageScale="1" pageWidth="850" pageHeight="1100" math="0" shadow="0">
      <root>
        <mxCell id="0" />
        <mxCell id="1" parent="0" />
        <mxCell id="oLv_lWQ1VGfw41E-V_cY-3" style="edgeStyle=orthogonalEdgeStyle;rounded=0;orthogonalLoop=1;jettySize=auto;html=1;entryX=0.5;entryY=0;entryDx=0;entryDy=0;" edge="1" parent="1" source="oLv_lWQ1VGfw41E-V_cY-1" target="oLv_lWQ1VGfw41E-V_cY-2">
          <mxGeometry relative="1" as="geometry" />
        </mxCell>
        <mxCell id="oLv_lWQ1VGfw41E-V_cY-1" value="Start" style="ellipse;whiteSpace=wrap;html=1;" vertex="1" parent="1">
          <mxGeometry x="270" y="30" width="90" height="50" as="geometry" />
        </mxCell>
        <mxCell id="oLv_lWQ1VGfw41E-V_cY-2" value="Time Loop Check" style="rounded=0;whiteSpace=wrap;html=1;" vertex="1" parent="1">
          <mxGeometry x="270" y="110" width="90" height="40" as="geometry" />
        </mxCell>
        <mxCell id="oLv_lWQ1VGfw41E-V_cY-6" style="edgeStyle=orthogonalEdgeStyle;rounded=0;orthogonalLoop=1;jettySize=auto;html=1;entryX=0.5;entryY=1;entryDx=0;entryDy=0;" edge="1" parent="1" source="oLv_lWQ1VGfw41E-V_cY-4" target="oLv_lWQ1VGfw41E-V_cY-2">
          <mxGeometry relative="1" as="geometry" />
        </mxCell>
        <mxCell id="oLv_lWQ1VGfw41E-V_cY-4" value="within the feeding window currentTime" style="rhombus;whiteSpace=wrap;html=1;" vertex="1" parent="1">
          <mxGeometry x="150" y="180" width="370" height="50" as="geometry" />
        </mxCell>
        <mxCell id="oLv_lWQ1VGfw41E-V_cY-5" style="edgeStyle=orthogonalEdgeStyle;rounded=0;orthogonalLoop=1;jettySize=auto;html=1;entryX=0.559;entryY=0.1;entryDx=0;entryDy=0;entryPerimeter=0;" edge="1" parent="1" source="oLv_lWQ1VGfw41E-V_cY-2" target="oLv_lWQ1VGfw41E-V_cY-4">
          <mxGeometry relative="1" as="geometry" />
        </mxCell>
        <mxCell id="oLv_lWQ1VGfw41E-V_cY-34" style="edgeStyle=orthogonalEdgeStyle;rounded=0;orthogonalLoop=1;jettySize=auto;html=1;" edge="1" parent="1" source="oLv_lWQ1VGfw41E-V_cY-7" target="oLv_lWQ1VGfw41E-V_cY-35">
          <mxGeometry relative="1" as="geometry">
            <mxPoint x="100" y="400" as="targetPoint" />
            <Array as="points">
              <mxPoint x="120" y="270" />
            </Array>
          </mxGeometry>
        </mxCell>
        <mxCell id="oLv_lWQ1VGfw41E-V_cY-38" value="Yes" style="edgeLabel;html=1;align=center;verticalAlign=middle;resizable=0;points=[];" vertex="1" connectable="0" parent="oLv_lWQ1VGfw41E-V_cY-34">
          <mxGeometry x="0.3298" y="-1" relative="1" as="geometry">
            <mxPoint as="offset" />
          </mxGeometry>
        </mxCell>
        <mxCell id="oLv_lWQ1VGfw41E-V_cY-7" value="foodLevelSensorStatus is True?" style="rhombus;whiteSpace=wrap;html=1;" vertex="1" parent="1">
          <mxGeometry x="140" y="250" width="370" height="50" as="geometry" />
        </mxCell>
        <mxCell id="oLv_lWQ1VGfw41E-V_cY-9" style="edgeStyle=orthogonalEdgeStyle;rounded=0;orthogonalLoop=1;jettySize=auto;html=1;entryX=0.395;entryY=0.924;entryDx=0;entryDy=0;entryPerimeter=0;" edge="1" parent="1" source="oLv_lWQ1VGfw41E-V_cY-7" target="oLv_lWQ1VGfw41E-V_cY-4">
          <mxGeometry relative="1" as="geometry" />
        </mxCell>
        <mxCell id="oLv_lWQ1VGfw41E-V_cY-11" style="edgeStyle=orthogonalEdgeStyle;rounded=0;orthogonalLoop=1;jettySize=auto;html=1;" edge="1" parent="1" source="oLv_lWQ1VGfw41E-V_cY-10" target="oLv_lWQ1VGfw41E-V_cY-7">
          <mxGeometry relative="1" as="geometry" />
        </mxCell>
        <mxCell id="oLv_lWQ1VGfw41E-V_cY-12" value="No" style="edgeLabel;html=1;align=center;verticalAlign=middle;resizable=0;points=[];" vertex="1" connectable="0" parent="oLv_lWQ1VGfw41E-V_cY-11">
          <mxGeometry x="0.3609" y="4" relative="1" as="geometry">
            <mxPoint as="offset" />
          </mxGeometry>
        </mxCell>
        <mxCell id="oLv_lWQ1VGfw41E-V_cY-15" style="edgeStyle=orthogonalEdgeStyle;rounded=0;orthogonalLoop=1;jettySize=auto;html=1;" edge="1" parent="1" source="oLv_lWQ1VGfw41E-V_cY-10" target="oLv_lWQ1VGfw41E-V_cY-14">
          <mxGeometry relative="1" as="geometry" />
        </mxCell>
        <mxCell id="oLv_lWQ1VGfw41E-V_cY-10" value="activateMotor is True" style="rounded=0;whiteSpace=wrap;html=1;" vertex="1" parent="1">
          <mxGeometry x="390" y="330" width="120" height="60" as="geometry" />
        </mxCell>
        <mxCell id="oLv_lWQ1VGfw41E-V_cY-16" style="edgeStyle=orthogonalEdgeStyle;rounded=0;orthogonalLoop=1;jettySize=auto;html=1;" edge="1" parent="1" source="oLv_lWQ1VGfw41E-V_cY-14" target="oLv_lWQ1VGfw41E-V_cY-17">
          <mxGeometry relative="1" as="geometry">
            <mxPoint x="485" y="520" as="targetPoint" />
          </mxGeometry>
        </mxCell>
        <mxCell id="oLv_lWQ1VGfw41E-V_cY-14" value="DIspense till weight &amp;gt;_ dispenseAmount" style="shape=parallelogram;perimeter=parallelogramPerimeter;whiteSpace=wrap;html=1;fixedSize=1;" vertex="1" parent="1">
          <mxGeometry x="380" y="420" width="210" height="60" as="geometry" />
        </mxCell>
        <mxCell id="oLv_lWQ1VGfw41E-V_cY-18" style="edgeStyle=orthogonalEdgeStyle;rounded=0;orthogonalLoop=1;jettySize=auto;html=1;" edge="1" parent="1" source="oLv_lWQ1VGfw41E-V_cY-17" target="oLv_lWQ1VGfw41E-V_cY-19">
          <mxGeometry relative="1" as="geometry">
            <mxPoint x="530" y="620" as="targetPoint" />
          </mxGeometry>
        </mxCell>
        <mxCell id="oLv_lWQ1VGfw41E-V_cY-17" value="activateMotor is False" style="rounded=0;whiteSpace=wrap;html=1;" vertex="1" parent="1">
          <mxGeometry x="425" y="510" width="185" height="60" as="geometry" />
        </mxCell>
        <mxCell id="oLv_lWQ1VGfw41E-V_cY-21" value="" style="edgeStyle=orthogonalEdgeStyle;rounded=0;orthogonalLoop=1;jettySize=auto;html=1;" edge="1" parent="1" source="oLv_lWQ1VGfw41E-V_cY-19" target="oLv_lWQ1VGfw41E-V_cY-20">
          <mxGeometry relative="1" as="geometry" />
        </mxCell>
        <mxCell id="oLv_lWQ1VGfw41E-V_cY-19" value="30 minutes Wait" style="rounded=0;whiteSpace=wrap;html=1;" vertex="1" parent="1">
          <mxGeometry x="470" y="590" width="130" height="50" as="geometry" />
        </mxCell>
        <mxCell id="oLv_lWQ1VGfw41E-V_cY-23" value="" style="edgeStyle=orthogonalEdgeStyle;rounded=0;orthogonalLoop=1;jettySize=auto;html=1;" edge="1" parent="1" source="oLv_lWQ1VGfw41E-V_cY-20" target="oLv_lWQ1VGfw41E-V_cY-22">
          <mxGeometry relative="1" as="geometry" />
        </mxCell>
        <mxCell id="oLv_lWQ1VGfw41E-V_cY-20" value="postWaitWeight = bowlWeights" style="rounded=0;whiteSpace=wrap;html=1;" vertex="1" parent="1">
          <mxGeometry x="640" y="585" width="120" height="60" as="geometry" />
        </mxCell>
        <mxCell id="oLv_lWQ1VGfw41E-V_cY-26" style="edgeStyle=orthogonalEdgeStyle;rounded=0;orthogonalLoop=1;jettySize=auto;html=1;" edge="1" parent="1" source="oLv_lWQ1VGfw41E-V_cY-22" target="oLv_lWQ1VGfw41E-V_cY-27">
          <mxGeometry relative="1" as="geometry">
            <mxPoint x="580" y="830" as="targetPoint" />
          </mxGeometry>
        </mxCell>
        <mxCell id="oLv_lWQ1VGfw41E-V_cY-28" value="No" style="edgeLabel;html=1;align=center;verticalAlign=middle;resizable=0;points=[];" vertex="1" connectable="0" parent="oLv_lWQ1VGfw41E-V_cY-26">
          <mxGeometry x="-0.3643" y="3" relative="1" as="geometry">
            <mxPoint as="offset" />
          </mxGeometry>
        </mxCell>
        <mxCell id="oLv_lWQ1VGfw41E-V_cY-22" value="has decreased bowlWeight enough?" style="rhombus;whiteSpace=wrap;html=1;rounded=0;" vertex="1" parent="1">
          <mxGeometry x="420" y="715" width="320" height="65" as="geometry" />
        </mxCell>
        <mxCell id="oLv_lWQ1VGfw41E-V_cY-24" style="edgeStyle=orthogonalEdgeStyle;rounded=0;orthogonalLoop=1;jettySize=auto;html=1;entryX=1;entryY=0.34;entryDx=0;entryDy=0;entryPerimeter=0;" edge="1" parent="1" source="oLv_lWQ1VGfw41E-V_cY-22" target="oLv_lWQ1VGfw41E-V_cY-1">
          <mxGeometry relative="1" as="geometry">
            <Array as="points">
              <mxPoint x="810" y="748" />
              <mxPoint x="810" y="47" />
            </Array>
          </mxGeometry>
        </mxCell>
        <mxCell id="oLv_lWQ1VGfw41E-V_cY-25" value="Yes" style="edgeLabel;html=1;align=center;verticalAlign=middle;resizable=0;points=[];" vertex="1" connectable="0" parent="oLv_lWQ1VGfw41E-V_cY-24">
          <mxGeometry x="-0.2403" relative="1" as="geometry">
            <mxPoint y="1" as="offset" />
          </mxGeometry>
        </mxCell>
        <mxCell id="oLv_lWQ1VGfw41E-V_cY-29" style="edgeStyle=orthogonalEdgeStyle;rounded=0;orthogonalLoop=1;jettySize=auto;html=1;" edge="1" parent="1" source="oLv_lWQ1VGfw41E-V_cY-27" target="oLv_lWQ1VGfw41E-V_cY-30">
          <mxGeometry relative="1" as="geometry">
            <mxPoint x="580" y="930" as="targetPoint" />
          </mxGeometry>
        </mxCell>
        <mxCell id="oLv_lWQ1VGfw41E-V_cY-27" value="alertType = NOT_EATEN" style="rounded=0;whiteSpace=wrap;html=1;" vertex="1" parent="1">
          <mxGeometry x="520" y="820" width="120" height="60" as="geometry" />
        </mxCell>
        <mxCell id="oLv_lWQ1VGfw41E-V_cY-31" style="edgeStyle=orthogonalEdgeStyle;rounded=0;orthogonalLoop=1;jettySize=auto;html=1;" edge="1" parent="1" source="oLv_lWQ1VGfw41E-V_cY-30">
          <mxGeometry relative="1" as="geometry">
            <mxPoint x="680" y="990" as="targetPoint" />
          </mxGeometry>
        </mxCell>
        <mxCell id="oLv_lWQ1VGfw41E-V_cY-30" value="activateAlert is True" style="rounded=0;whiteSpace=wrap;html=1;" vertex="1" parent="1">
          <mxGeometry x="620" y="910" width="120" height="60" as="geometry" />
        </mxCell>
        <mxCell id="oLv_lWQ1VGfw41E-V_cY-33" value="Stop" style="ellipse;whiteSpace=wrap;html=1;" vertex="1" parent="1">
          <mxGeometry x="620" y="990" width="120" height="80" as="geometry" />
        </mxCell>
        <mxCell id="oLv_lWQ1VGfw41E-V_cY-36" style="edgeStyle=orthogonalEdgeStyle;rounded=0;orthogonalLoop=1;jettySize=auto;html=1;" edge="1" parent="1" source="oLv_lWQ1VGfw41E-V_cY-35" target="oLv_lWQ1VGfw41E-V_cY-37">
          <mxGeometry relative="1" as="geometry">
            <mxPoint x="120" y="460" as="targetPoint" />
          </mxGeometry>
        </mxCell>
        <mxCell id="oLv_lWQ1VGfw41E-V_cY-35" value="activateAlert is True" style="rounded=0;whiteSpace=wrap;html=1;" vertex="1" parent="1">
          <mxGeometry x="60" y="320" width="120" height="60" as="geometry" />
        </mxCell>
        <mxCell id="oLv_lWQ1VGfw41E-V_cY-37" value="Stop" style="ellipse;whiteSpace=wrap;html=1;" vertex="1" parent="1">
          <mxGeometry x="60" y="420" width="120" height="80" as="geometry" />
        </mxCell>
      </root>
    </mxGraphModel>
  </diagram>
</mxfile>
